<svg width="259" height="28" viewBox="0 0 259 28" fill="none" xmlns="http://www.w3.org/2000/svg">
<rect width="259" height="28" rx="4" fill="#23272C"/>
<rect x="0.5" y="0.5" width="258" height="27" rx="3.5" stroke="white" stroke-opacity="0.1"/>
<path d="M21.3501 20.3563C21.2568 20.4483 21.1311 20.4999 21.0001 20.5001C20.8673 20.4995 20.7398 20.4481 20.6438 20.3563L17.9438 17.6501C16.8067 18.6052 15.3447 19.0845 13.8628 18.9879C12.381 18.8913 10.9936 18.2264 9.99 17.1317C8.98645 16.0371 8.44424 14.5973 8.47645 13.1126C8.50867 11.6279 9.11282 10.213 10.1629 9.1629C11.213 8.11282 12.6279 7.50867 14.1126 7.47645C15.5973 7.44424 17.0371 7.98645 18.1317 8.99C19.2264 9.99355 19.8913 11.381 19.9879 12.8628C20.0845 14.3447 19.6052 15.8067 18.6501 16.9438L21.3501 19.6438C21.3973 19.6904 21.4349 19.7458 21.4605 19.807C21.4861 19.8681 21.4993 19.9338 21.4993 20.0001C21.4993 20.0664 21.4861 20.132 21.4605 20.1932C21.4349 20.2544 21.3973 20.3098 21.3501 20.3563ZM14.2501 18.0001C15.1896 18.0001 16.1079 17.7215 16.8891 17.1996C17.6702 16.6776 18.279 15.9358 18.6385 15.0678C18.998 14.1999 19.0921 13.2448 18.9088 12.3234C18.7255 11.402 18.2732 10.5556 17.6089 9.89134C16.9446 9.22704 16.0982 8.77465 15.1768 8.59137C14.2554 8.40809 13.3003 8.50215 12.4324 8.86167C11.5644 9.22119 10.8226 9.83001 10.3006 10.6111C9.77868 11.3923 9.5001 12.3106 9.5001 13.2501C9.50175 14.5094 10.0027 15.7166 10.8932 16.607C11.7836 17.4975 12.9908 17.9984 14.2501 18.0001Z" fill="white" fill-opacity="0.2"/>
<path d="M33.8011 11.3636C33.7415 10.8598 33.4995 10.4688 33.0753 10.1903C32.651 9.91193 32.1307 9.77273 31.5142 9.77273C31.0634 9.77273 30.669 9.84564 30.331 9.99148C29.9962 10.1373 29.7344 10.3378 29.5455 10.593C29.3598 10.8482 29.267 11.1383 29.267 11.4631C29.267 11.7348 29.3317 11.9685 29.4609 12.1641C29.5935 12.3563 29.7625 12.517 29.968 12.6463C30.1735 12.7723 30.389 12.8767 30.6143 12.9595C30.8397 13.0391 31.0469 13.1037 31.2358 13.1534L32.2699 13.4318C32.535 13.5014 32.83 13.5975 33.1548 13.7202C33.483 13.8428 33.7962 14.0102 34.0945 14.2223C34.3961 14.4311 34.6446 14.6996 34.8402 15.0277C35.0357 15.3558 35.1335 15.7585 35.1335 16.2358C35.1335 16.786 34.9893 17.2831 34.701 17.7273C34.416 18.1714 33.9983 18.5244 33.4482 18.7862C32.9013 19.0481 32.2367 19.179 31.4545 19.179C30.7254 19.179 30.094 19.0613 29.5604 18.826C29.0301 18.5907 28.6125 18.2625 28.3075 17.8416C28.0059 17.4207 27.8352 16.9318 27.7955 16.375H29.0682C29.1013 16.7595 29.2306 17.0777 29.456 17.3295C29.6847 17.5781 29.973 17.7637 30.321 17.8864C30.6723 18.0057 31.0502 18.0653 31.4545 18.0653C31.9252 18.0653 32.3478 17.9891 32.7223 17.8366C33.0968 17.6809 33.3935 17.4654 33.6122 17.1903C33.831 16.9119 33.9403 16.5871 33.9403 16.2159C33.9403 15.8778 33.8459 15.6027 33.657 15.3906C33.468 15.1785 33.2195 15.0062 32.9112 14.8736C32.603 14.741 32.2699 14.625 31.9119 14.5256L30.6591 14.1676C29.8636 13.9389 29.2339 13.6125 28.7699 13.1882C28.3059 12.764 28.0739 12.2088 28.0739 11.5227C28.0739 10.9527 28.228 10.4555 28.5362 10.0312C28.8478 9.60369 29.2654 9.27225 29.7891 9.03693C30.3161 8.7983 30.9044 8.67898 31.554 8.67898C32.2102 8.67898 32.7936 8.79664 33.304 9.03196C33.8144 9.26397 34.2188 9.58215 34.517 9.98651C34.8187 10.3909 34.9777 10.8499 34.9943 11.3636H33.8011ZM40.2033 19.1591C39.4675 19.1591 38.8328 18.9967 38.2992 18.6719C37.7689 18.3438 37.3596 17.8864 37.0712 17.2997C36.7862 16.7098 36.6436 16.0237 36.6436 15.2415C36.6436 14.4593 36.7862 13.7699 37.0712 13.1733C37.3596 12.5734 37.7606 12.1061 38.2743 11.7713C38.7914 11.4332 39.3946 11.2642 40.084 11.2642C40.4817 11.2642 40.8745 11.3305 41.2623 11.4631C41.65 11.5956 42.003 11.8111 42.3212 12.1094C42.6394 12.4044 42.8929 12.7955 43.0819 13.2827C43.2708 13.7699 43.3652 14.3698 43.3652 15.0824V15.5795H37.4789V14.5653H42.1721C42.1721 14.1345 42.0859 13.75 41.9135 13.4119C41.7445 13.0739 41.5025 12.8071 41.1877 12.6115C40.8761 12.416 40.5082 12.3182 40.084 12.3182C39.6167 12.3182 39.2123 12.4342 38.8709 12.6662C38.5328 12.8949 38.2727 13.1932 38.0904 13.5611C37.9081 13.929 37.8169 14.3234 37.8169 14.7443V15.4205C37.8169 15.9972 37.9164 16.486 38.1152 16.8871C38.3174 17.2848 38.5975 17.5881 38.9554 17.7969C39.3134 18.0024 39.7293 18.1051 40.2033 18.1051C40.5115 18.1051 40.79 18.062 41.0385 17.9759C41.2904 17.8864 41.5075 17.7538 41.6898 17.5781C41.8721 17.3991 42.013 17.1771 42.1124 16.9119L43.2459 17.2301C43.1266 17.6146 42.9261 17.9527 42.6444 18.2443C42.3626 18.5327 42.0146 18.758 41.6003 18.9205C41.186 19.0795 40.7203 19.1591 40.2033 19.1591ZM48.0336 19.1591C47.3972 19.1591 46.8354 18.9983 46.3482 18.6768C45.861 18.352 45.4798 17.8946 45.2047 17.3047C44.9296 16.7114 44.7921 16.0104 44.7921 15.2017C44.7921 14.3996 44.9296 13.7036 45.2047 13.1136C45.4798 12.5237 45.8626 12.0679 46.3532 11.7464C46.8437 11.425 47.4105 11.2642 48.0534 11.2642C48.5506 11.2642 48.9434 11.3471 49.2317 11.5128C49.5234 11.6752 49.7454 11.8608 49.8979 12.0696C50.0537 12.2751 50.1747 12.4441 50.2608 12.5767H50.3603V11.3636H51.5336V19H50.4V17.8267H50.2608C50.1747 17.9659 50.052 18.1416 49.8929 18.3537C49.7338 18.5625 49.5068 18.7498 49.2118 18.9155C48.9168 19.0779 48.5241 19.1591 48.0336 19.1591ZM48.1926 18.1051C48.6633 18.1051 49.061 17.9825 49.3858 17.7372C49.7106 17.4886 49.9576 17.1456 50.1266 16.7081C50.2956 16.2673 50.3801 15.7585 50.3801 15.1818C50.3801 14.6117 50.2973 14.1129 50.1316 13.6854C49.9659 13.2545 49.7206 12.9197 49.3958 12.6811C49.071 12.4392 48.6699 12.3182 48.1926 12.3182C47.6955 12.3182 47.2812 12.4458 46.9498 12.701C46.6216 12.9529 46.3747 13.2959 46.209 13.7301C46.0466 14.161 45.9654 14.6449 45.9654 15.1818C45.9654 15.7254 46.0482 16.2192 46.214 16.6634C46.383 17.1042 46.6316 17.4555 46.9597 17.7173C47.2911 17.9759 47.7021 18.1051 48.1926 18.1051ZM53.8453 19V11.3636H54.9789V12.517H55.0584C55.1976 12.1392 55.4495 11.8326 55.8141 11.5973C56.1787 11.362 56.5897 11.2443 57.0471 11.2443C57.1332 11.2443 57.2409 11.246 57.3702 11.2493C57.4995 11.2526 57.5972 11.2576 57.6635 11.2642V12.4574C57.6238 12.4474 57.5326 12.4325 57.3901 12.4126C57.2509 12.3894 57.1034 12.3778 56.9476 12.3778C56.5764 12.3778 56.245 12.4557 55.9533 12.6115C55.665 12.764 55.4363 12.9761 55.2672 13.2479C55.1015 13.5163 55.0186 13.8229 55.0186 14.1676V19H53.8453ZM61.9242 19.1591C61.2083 19.1591 60.5918 18.9901 60.0748 18.652C59.5577 18.3139 59.16 17.8482 58.8816 17.255C58.6032 16.6617 58.464 15.9839 58.464 15.2216C58.464 14.446 58.6065 13.7616 58.8915 13.1683C59.1799 12.5717 59.5809 12.1061 60.0946 11.7713C60.6117 11.4332 61.2149 11.2642 61.9043 11.2642C62.4412 11.2642 62.9251 11.3636 63.356 11.5625C63.7869 11.7614 64.1399 12.0398 64.415 12.3977C64.69 12.7557 64.8607 13.1733 64.927 13.6506H63.7537C63.6642 13.3026 63.4654 12.9943 63.1571 12.7259C62.8522 12.4541 62.4412 12.3182 61.9242 12.3182C61.4668 12.3182 61.0658 12.4375 60.7211 12.6761C60.3797 12.9115 60.1129 13.2446 59.9206 13.6754C59.7317 14.103 59.6373 14.6051 59.6373 15.1818C59.6373 15.7718 59.7301 16.2855 59.9157 16.723C60.1046 17.1605 60.3697 17.5002 60.7111 17.7422C61.0558 17.9841 61.4602 18.1051 61.9242 18.1051C62.2291 18.1051 62.5059 18.0521 62.7544 17.946C63.003 17.84 63.2135 17.6875 63.3858 17.4886C63.5582 17.2898 63.6808 17.0511 63.7537 16.7727H64.927C64.8607 17.2235 64.6967 17.6295 64.4348 17.9908C64.1763 18.3487 63.8333 18.6338 63.4057 18.8459C62.9815 19.0547 62.4876 19.1591 61.9242 19.1591ZM67.8155 14.4062V19H66.6422V8.81818H67.8155V12.5568H67.915C68.0939 12.1624 68.3624 11.8492 68.7203 11.6172C69.0816 11.3819 69.5622 11.2642 70.1621 11.2642C70.6825 11.2642 71.1382 11.3686 71.5293 11.5774C71.9204 11.7829 72.2237 12.0994 72.4391 12.527C72.6578 12.9512 72.7672 13.4915 72.7672 14.1477V19H71.5939V14.2273C71.5939 13.6207 71.4365 13.1518 71.1216 12.8203C70.8101 12.4856 70.3775 12.3182 69.824 12.3182C69.4396 12.3182 69.0949 12.3994 68.79 12.5618C68.4883 12.7242 68.2497 12.9612 68.074 13.2727C67.9017 13.5843 67.8155 13.9621 67.8155 14.4062Z" fill="white" fill-opacity="0.2"/>
</svg>
